<svg width="680" height="400" viewBox="0 0 680 400" xmlns="http://www.w3.org/2000/svg">
<defs>
<marker id="arrow" viewBox="0 0 10 10" refX="8" refY="5" markerWidth="6" markerHeight="6" orient="auto-start-reverse"><path d="M2 1L8 5L2 9" fill="none" stroke="context-stroke" stroke-width="1.5" stroke-linecap="round" stroke-linejoin="round"/></marker>
</defs>

<rect x="40" y="30" width="600" height="110" rx="16" fill="#EEEDFE" stroke="#534AB7" stroke-width="0.5"/>
<text x="60" y="54" font-size="14" font-weight="500" fill="#26215C">JVM process</text>

<rect x="70" y="75" width="150" height="44" rx="8" fill="#E6F1FB" stroke="#185FA5" stroke-width="0.5"/>
<text x="145" y="97" font-size="14" font-weight="500" text-anchor="middle" fill="#0C447C">Thread A object</text>

<rect x="265" y="75" width="150" height="44" rx="8" fill="#E6F1FB" stroke="#185FA5" stroke-width="0.5"/>
<text x="340" y="97" font-size="14" font-weight="500" text-anchor="middle" fill="#0C447C">Thread B object</text>

<rect x="460" y="75" width="150" height="44" rx="8" fill="#E6F1FB" stroke="#185FA5" stroke-width="0.5"/>
<text x="535" y="97" font-size="14" font-weight="500" text-anchor="middle" fill="#0C447C">Thread C object</text>

<line x1="145" y1="119" x2="145" y2="180" stroke="#444441" stroke-width="1.5" marker-end="url(#arrow)"/>
<line x1="340" y1="119" x2="340" y2="180" stroke="#444441" stroke-width="1.5" marker-end="url(#arrow)"/>
<line x1="535" y1="119" x2="535" y2="180" stroke="#444441" stroke-width="1.5" marker-end="url(#arrow)"/>
<text x="400" y="160" font-size="12" text-anchor="middle" fill="#444441">1:1 native mapping</text>

<rect x="40" y="190" width="600" height="110" rx="16" fill="#F1EFE8" stroke="#5F5E5A" stroke-width="0.5"/>
<text x="60" y="214" font-size="14" font-weight="500" fill="#2C2C2A">Operating system</text>

<rect x="70" y="235" width="150" height="44" rx="8" fill="#E1F5EE" stroke="#0F6E56" stroke-width="0.5"/>
<text x="145" y="257" font-size="14" font-weight="500" text-anchor="middle" fill="#085041">OS thread A</text>

<rect x="265" y="235" width="150" height="44" rx="8" fill="#E1F5EE" stroke="#0F6E56" stroke-width="0.5"/>
<text x="340" y="257" font-size="14" font-weight="500" text-anchor="middle" fill="#085041">OS thread B</text>

<rect x="460" y="235" width="150" height="44" rx="8" fill="#E1F5EE" stroke="#0F6E56" stroke-width="0.5"/>
<text x="535" y="257" font-size="14" font-weight="500" text-anchor="middle" fill="#085041">OS thread C</text>

<line x1="145" y1="279" x2="220" y2="340" stroke="#444441" stroke-width="1.5" marker-end="url(#arrow)"/>
<line x1="340" y1="279" x2="340" y2="340" stroke="#444441" stroke-width="1.5" marker-end="url(#arrow)"/>
<line x1="535" y1="279" x2="460" y2="340" stroke="#444441" stroke-width="1.5" marker-end="url(#arrow)"/>
<text x="400" y="322" font-size="12" text-anchor="middle" fill="#444441">OS scheduler assigns time slices</text>

<rect x="180" y="340" width="140" height="40" rx="8" fill="#FAEEDA" stroke="#854F0B" stroke-width="0.5"/>
<text x="250" y="360" font-size="14" font-weight="500" text-anchor="middle" fill="#633806">CPU core 1</text>

<rect x="360" y="340" width="140" height="40" rx="8" fill="#FAEEDA" stroke="#854F0B" stroke-width="0.5"/>
<text x="430" y="360" font-size="14" font-weight="500" text-anchor="middle" fill="#633806">CPU core 2</text>
</svg>
