<svg width="680" height="420" viewBox="0 0 680 420" xmlns="http://www.w3.org/2000/svg">
<defs>
<marker id="arrow" viewBox="0 0 10 10" refX="8" refY="5" markerWidth="6" markerHeight="6" orient="auto-start-reverse"><path d="M2 1L8 5L2 9" fill="none" stroke="context-stroke" stroke-width="1.5" stroke-linecap="round" stroke-linejoin="round"/></marker>
</defs>
<rect x="270" y="30" width="140" height="44" rx="8" fill="#F1EFE8" stroke="#5F5E5A" stroke-width="0.5"/>
<text x="340" y="52" font-size="13" font-weight="500" text-anchor="middle" fill="#2C2C2A">Client devices</text>

<rect x="220" y="140" width="240" height="70" rx="12" fill="#EEEDFE" stroke="#534AB7" stroke-width="0.5"/>
<text x="240" y="165" font-size="14" font-weight="500" fill="#26215C">Proxy fleet (OPF)</text>
<text x="240" y="185" font-size="12" fill="#534AB7">routes to either region — redundant instances</text>
<line x1="340" y1="74" x2="340" y2="140" stroke="#444441" stroke-width="1.5" marker-end="url(#arrow)"/>
<text x="350" y="110" font-size="12" fill="#444441">requests</text>

<rect x="60" y="270" width="230" height="70" rx="12" fill="#E1F5EE" stroke="#0F6E56" stroke-width="0.5"/>
<text x="80" y="295" font-size="14" font-weight="500" fill="#085041">Dublin region</text>
<text x="80" y="315" font-size="12" fill="#0F6E56">search &amp; recommendation</text>
<rect x="390" y="270" width="230" height="70" rx="12" fill="#E1F5EE" stroke="#0F6E56" stroke-width="0.5"/>
<text x="410" y="295" font-size="14" font-weight="500" fill="#085041">Spain region</text>
<text x="410" y="315" font-size="12" fill="#0F6E56">search &amp; recommendation</text>
<line x1="290" y1="210" x2="200" y2="270" stroke="#444441" stroke-width="1.5" marker-end="url(#arrow)"/>
<line x1="390" y1="210" x2="480" y2="270" stroke="#444441" stroke-width="1.5" marker-end="url(#arrow)"/>

<rect x="40" y="30" width="170" height="60" rx="10" fill="#FAEEDA" stroke="#854F0B" stroke-width="0.5"/>
<text x="60" y="52" font-size="14" font-weight="500" fill="#633806">Config service</text>
<text x="60" y="72" font-size="12" fill="#854F0B">~6hr device propagation</text>
<path d="M115,90 C115,120 260,50 268,50" fill="none" stroke="#854F0B" stroke-width="1.5" stroke-dasharray="5 4" marker-end="url(#arrow)"/>
<text x="40" y="115" font-size="12" fill="#444441">slow path — not used for rollback</text>
</svg>
